<svg xmlns="http://www.w3.org/2000/svg" xmlns:xlink="http://www.w3.org/1999/xlink" width="1024" zoomAndPan="magnify" viewBox="0 0 768 767.999994" height="1024" preserveAspectRatio="xMidYMid meet" version="1.0"><defs><clipPath id="79d0d2a1a4"><path d="M 31.9375 31.9375 L 736.1875 31.9375 L 736.1875 736.1875 L 31.9375 736.1875 Z M 31.9375 31.9375 " clip-rule="nonzero"/></clipPath></defs><rect x="-76.8" width="921.6" fill="#ffffff" y="-76.799999" height="921.599993" fill-opacity="1"/><rect x="-76.8" width="921.6" fill="#ffffff" y="-76.799999" height="921.599993" fill-opacity="1"/><g clip-path="url(#79d0d2a1a4)"><path fill="#f1582e" d="M 736.1875 384.0625 C 736.1875 389.828125 736.046875 395.585938 735.765625 401.34375 C 735.480469 407.097656 735.058594 412.84375 734.492188 418.578125 C 733.929688 424.3125 733.222656 430.03125 732.378906 435.730469 C 731.53125 441.433594 730.546875 447.109375 729.421875 452.761719 C 728.300781 458.414062 727.035156 464.035156 725.636719 469.625 C 724.234375 475.214844 722.699219 480.765625 721.027344 486.28125 C 719.355469 491.796875 717.546875 497.265625 715.605469 502.691406 C 713.664062 508.117188 711.589844 513.492188 709.386719 518.816406 C 707.179688 524.140625 704.84375 529.40625 702.382812 534.617188 C 699.917969 539.828125 697.328125 544.972656 694.609375 550.054688 C 691.894531 555.136719 689.054688 560.148438 686.09375 565.09375 C 683.128906 570.035156 680.046875 574.902344 676.84375 579.695312 C 673.644531 584.484375 670.328125 589.195312 666.894531 593.824219 C 663.460938 598.453125 659.917969 602.996094 656.261719 607.449219 C 652.605469 611.90625 648.839844 616.265625 644.972656 620.535156 C 641.101562 624.808594 637.128906 628.980469 633.054688 633.054688 C 628.980469 637.128906 624.808594 641.101562 620.535156 644.972656 C 616.265625 648.839844 611.90625 652.605469 607.449219 656.261719 C 602.996094 659.917969 598.453125 663.460938 593.824219 666.894531 C 589.195312 670.328125 584.484375 673.644531 579.695312 676.84375 C 574.902344 680.046875 570.035156 683.128906 565.09375 686.09375 C 560.148438 689.054688 555.136719 691.894531 550.054688 694.609375 C 544.972656 697.328125 539.828125 699.917969 534.617188 702.382812 C 529.40625 704.84375 524.140625 707.179688 518.816406 709.386719 C 513.492188 711.589844 508.117188 713.664062 502.691406 715.605469 C 497.265625 717.546875 491.796875 719.355469 486.28125 721.027344 C 480.765625 722.699219 475.214844 724.238281 469.625 725.636719 C 464.035156 727.035156 458.414062 728.300781 452.761719 729.421875 C 447.109375 730.546875 441.433594 731.53125 435.730469 732.378906 C 430.03125 733.222656 424.3125 733.929688 418.578125 734.492188 C 412.84375 735.058594 407.097656 735.480469 401.34375 735.765625 C 395.585938 736.046875 389.828125 736.1875 384.0625 736.1875 C 378.300781 736.1875 372.542969 736.046875 366.785156 735.765625 C 361.03125 735.480469 355.285156 735.058594 349.550781 734.492188 C 343.816406 733.929688 338.097656 733.222656 332.398438 732.378906 C 326.695312 731.53125 321.019531 730.546875 315.367188 729.421875 C 309.714844 728.300781 304.09375 727.035156 298.503906 725.636719 C 292.914062 724.238281 287.363281 722.699219 281.847656 721.027344 C 276.332031 719.355469 270.863281 717.546875 265.4375 715.605469 C 260.011719 713.664062 254.636719 711.589844 249.3125 709.386719 C 243.988281 707.179688 238.722656 704.84375 233.511719 702.382812 C 228.300781 699.917969 223.15625 697.328125 218.074219 694.609375 C 212.992188 691.894531 207.980469 689.054688 203.035156 686.09375 C 198.09375 683.128906 193.226562 680.046875 188.433594 676.84375 C 183.640625 673.644531 178.933594 670.328125 174.304688 666.894531 C 169.675781 663.460938 165.132812 659.917969 160.679688 656.261719 C 156.222656 652.605469 151.863281 648.839844 147.589844 644.972656 C 143.320312 641.101562 139.148438 637.128906 135.074219 633.054688 C 131 628.980469 127.027344 624.808594 123.15625 620.535156 C 119.285156 616.265625 115.523438 611.90625 111.867188 607.449219 C 108.210938 602.996094 104.667969 598.453125 101.234375 593.824219 C 97.800781 589.195312 94.484375 584.484375 91.28125 579.695312 C 88.082031 574.902344 85 570.035156 82.035156 565.09375 C 79.074219 560.148438 76.234375 555.136719 73.519531 550.054688 C 70.800781 544.972656 68.210938 539.828125 65.746094 534.617188 C 63.28125 529.40625 60.949219 524.140625 58.742188 518.816406 C 56.539062 513.492188 54.464844 508.117188 52.523438 502.691406 C 50.582031 497.265625 48.773438 491.796875 47.101562 486.28125 C 45.429688 480.765625 43.890625 475.214844 42.492188 469.625 C 41.09375 464.035156 39.828125 458.414062 38.707031 452.761719 C 37.582031 447.109375 36.597656 441.433594 35.75 435.730469 C 34.90625 430.03125 34.199219 424.3125 33.636719 418.578125 C 33.070312 412.84375 32.644531 407.097656 32.363281 401.34375 C 32.082031 395.585938 31.9375 389.828125 31.9375 384.0625 C 31.9375 378.300781 32.082031 372.542969 32.363281 366.785156 C 32.644531 361.03125 33.070312 355.285156 33.636719 349.550781 C 34.199219 343.816406 34.90625 338.097656 35.75 332.398438 C 36.597656 326.695312 37.582031 321.019531 38.707031 315.367188 C 39.828125 309.714844 41.09375 304.09375 42.492188 298.503906 C 43.890625 292.914062 45.429688 287.363281 47.101562 281.847656 C 48.773438 276.332031 50.582031 270.863281 52.523438 265.4375 C 54.464844 260.011719 56.539062 254.636719 58.742188 249.3125 C 60.949219 243.988281 63.28125 238.722656 65.746094 233.511719 C 68.210938 228.300781 70.800781 223.15625 73.519531 218.074219 C 76.234375 212.992188 79.074219 207.980469 82.035156 203.035156 C 85 198.09375 88.082031 193.226562 91.28125 188.433594 C 94.484375 183.644531 97.800781 178.933594 101.234375 174.304688 C 104.667969 169.675781 108.210938 165.132812 111.867188 160.679688 C 115.523438 156.222656 119.285156 151.863281 123.15625 147.589844 C 127.027344 143.320312 131 139.148438 135.074219 135.074219 C 139.148438 131 143.320312 127.027344 147.589844 123.15625 C 151.863281 119.285156 156.222656 115.523438 160.679688 111.867188 C 165.132812 108.210938 169.675781 104.667969 174.304688 101.234375 C 178.933594 97.800781 183.640625 94.484375 188.433594 91.28125 C 193.226562 88.082031 198.09375 85 203.035156 82.035156 C 207.980469 79.074219 212.992188 76.234375 218.074219 73.519531 C 223.15625 70.800781 228.300781 68.210938 233.511719 65.746094 C 238.722656 63.285156 243.988281 60.949219 249.3125 58.742188 C 254.636719 56.539062 260.011719 54.464844 265.4375 52.523438 C 270.863281 50.582031 276.332031 48.773438 281.847656 47.101562 C 287.363281 45.429688 292.914062 43.890625 298.503906 42.492188 C 304.09375 41.09375 309.714844 39.828125 315.367188 38.707031 C 321.019531 37.582031 326.695312 36.597656 332.398438 35.75 C 338.097656 34.90625 343.816406 34.199219 349.550781 33.636719 C 355.285156 33.070312 361.03125 32.644531 366.785156 32.363281 C 372.542969 32.082031 378.300781 31.9375 384.0625 31.9375 C 389.828125 31.9375 395.585938 32.082031 401.34375 32.363281 C 407.097656 32.644531 412.84375 33.070312 418.578125 33.636719 C 424.3125 34.199219 430.03125 34.90625 435.730469 35.75 C 441.433594 36.597656 447.109375 37.582031 452.761719 38.707031 C 458.414062 39.828125 464.035156 41.09375 469.625 42.492188 C 475.214844 43.890625 480.765625 45.429688 486.28125 47.101562 C 491.796875 48.773438 497.265625 50.582031 502.691406 52.523438 C 508.117188 54.464844 513.492188 56.539062 518.816406 58.742188 C 524.140625 60.949219 529.40625 63.285156 534.617188 65.746094 C 539.828125 68.210938 544.972656 70.800781 550.054688 73.519531 C 555.136719 76.234375 560.148438 79.074219 565.09375 82.035156 C 570.035156 85 574.902344 88.082031 579.695312 91.28125 C 584.484375 94.484375 589.195312 97.800781 593.824219 101.234375 C 598.453125 104.667969 602.996094 108.210938 607.449219 111.867188 C 611.90625 115.523438 616.265625 119.285156 620.535156 123.15625 C 624.808594 127.027344 628.980469 131 633.054688 135.074219 C 637.128906 139.148438 641.101562 143.320312 644.972656 147.589844 C 648.839844 151.863281 652.605469 156.222656 656.261719 160.679688 C 659.917969 165.132812 663.460938 169.675781 666.894531 174.304688 C 670.328125 178.933594 673.644531 183.644531 676.84375 188.433594 C 680.046875 193.226562 683.128906 198.09375 686.09375 203.035156 C 689.054688 207.980469 691.894531 212.992188 694.609375 218.074219 C 697.328125 223.15625 699.917969 228.300781 702.382812 233.511719 C 704.84375 238.722656 707.179688 243.988281 709.386719 249.3125 C 711.589844 254.636719 713.664062 260.011719 715.605469 265.4375 C 717.546875 270.863281 719.355469 276.332031 721.027344 281.847656 C 722.699219 287.363281 724.234375 292.914062 725.636719 298.503906 C 727.035156 304.09375 728.300781 309.714844 729.421875 315.367188 C 730.546875 321.019531 731.53125 326.695312 732.378906 332.398438 C 733.222656 338.097656 733.929688 343.816406 734.492188 349.550781 C 735.058594 355.285156 735.480469 361.03125 735.765625 366.785156 C 736.046875 372.542969 736.1875 378.300781 736.1875 384.0625 Z M 736.1875 384.0625 " fill-opacity="1" fill-rule="nonzero"/></g><path fill="#ffffff" d="M 515.085938 197.355469 L 253.042969 197.355469 L 203.90625 267.78125 L 213.734375 542.929688 C 213.734375 559.308594 226.835938 570.773438 243.214844 570.773438 L 523.277344 570.773438 C 539.65625 570.773438 552.757812 557.671875 552.757812 542.929688 L 562.582031 267.78125 Z M 461.039062 272.695312 L 307.089844 272.695312 L 307.089844 239.9375 C 307.089844 231.75 313.640625 225.199219 321.828125 225.199219 L 447.9375 225.199219 C 456.128906 225.199219 462.679688 231.75 462.679688 239.9375 L 462.679688 272.695312 Z M 461.039062 272.695312 " fill-opacity="1" fill-rule="nonzero"/><path fill="#f1582e" d="M 454.488281 570.773438 L 457.765625 490.519531 C 457.765625 483.96875 461.039062 477.417969 465.953125 472.503906 C 477.417969 461.039062 498.710938 436.472656 501.984375 402.078125 C 506.898438 354.585938 472.503906 320.191406 443.023438 320.191406 C 413.542969 320.191406 379.152344 354.585938 384.0625 402.078125 C 387.339844 436.472656 408.632812 462.679688 420.097656 472.503906 C 425.007812 477.417969 426.648438 483.96875 428.285156 490.519531 L 431.558594 570.773438 Z M 454.488281 570.773438 " fill-opacity="1" fill-rule="nonzero"/><path fill="#f1582e" d="M 307.089844 318.550781 C 312 318.550781 313.640625 320.191406 313.640625 320.191406 L 313.640625 415.183594 C 313.640625 415.183594 316.914062 418.457031 320.191406 420.097656 C 323.464844 421.734375 326.742188 416.820312 326.742188 416.820312 L 328.378906 320.191406 L 344.757812 320.191406 L 348.03125 441.386719 C 341.480469 452.851562 323.464844 470.867188 323.464844 470.867188 L 320.191406 570.773438 L 293.984375 570.773438 L 290.710938 470.867188 C 290.710938 470.867188 271.058594 451.214844 266.144531 441.386719 L 269.417969 320.191406 L 285.796875 320.191406 L 287.433594 416.820312 C 287.433594 416.820312 290.710938 420.097656 293.984375 420.097656 C 298.898438 420.097656 300.535156 415.183594 300.535156 415.183594 L 300.535156 320.191406 C 302.175781 320.191406 302.175781 318.550781 307.089844 318.550781 Z M 307.089844 318.550781 " fill-opacity="1" fill-rule="nonzero"/></svg>